<svg width="134" height="103" viewBox="0 0 134 103" fill="none" xmlns="http://www.w3.org/2000/svg">
<g id="Vector" filter="url(#filter0_i_120_121)">
<path d="M17.434 15.8336C23.0253 15.8336 28.0121 13.4291 31.4878 9.22102C34.9634 13.2788 40.1014 15.8336 45.6927 15.8336C51.2839 15.8336 56.4219 13.4291 59.7464 9.22102C63.2221 13.2788 68.36 15.8336 73.9513 15.8336C79.5426 15.8336 84.6806 13.4291 88.0051 9.22102C91.4808 13.2788 96.6187 15.8336 102.21 15.8336C109.766 15.8336 116.415 11.325 119.286 4.41184C119.891 2.75869 119.135 0.955244 117.473 0.354097C115.81 -0.24705 113.997 0.504383 113.393 2.15754C111.579 6.81643 107.197 9.67188 102.21 9.67188C97.2232 9.67188 92.8408 6.81643 91.0274 2.15754C90.7252 1.4061 90.1207 0.654671 89.214 0.354097C87.5518 -0.24705 85.7384 0.504383 85.1339 2.15754C83.3205 6.81643 78.9382 9.67188 73.9513 9.67188C68.9645 9.67188 64.5821 6.81643 62.7688 2.15754C62.4665 1.4061 61.8621 0.654671 60.9554 0.354097C59.2931 -0.24705 57.4797 0.504383 56.8752 2.15754C55.0618 6.81643 50.6795 9.67188 45.6927 9.67188C40.7058 9.67188 36.4746 6.81643 34.5101 2.30782C34.2078 1.4061 33.6034 0.654671 32.6967 0.354097C31.0344 -0.24705 29.221 0.504383 28.6166 2.15754C26.8032 6.81643 22.4208 9.67188 17.434 9.67188C12.4472 9.67188 8.06479 6.66614 6.2514 2.15754C5.49582 0.354097 3.68243 -0.397338 2.02015 0.203809C0.357878 0.804957 -0.397702 2.75869 0.206762 4.26155C3.22908 11.325 9.87818 15.8336 17.434 15.8336Z" fill="#CCCCCC"/>
<path d="M105.383 31.1629C105.081 30.4115 104.477 29.66 103.57 29.3595C101.908 28.7583 100.094 29.5098 99.4899 31.1629C97.6765 35.8218 93.2942 38.6773 88.3074 38.6773C83.3205 38.6773 78.9382 35.8218 77.1248 31.1629C76.8225 30.4115 76.2181 29.66 75.3114 29.3595C73.6491 28.7583 71.8357 29.5098 71.2313 31.1629C69.4179 35.8218 65.0355 38.6773 60.0487 38.6773C55.0619 38.6773 50.8306 35.8218 48.8661 31.3132C48.5639 30.4115 47.9594 29.66 47.0527 29.3595C45.3904 28.7583 43.577 29.5098 42.9726 31.1629C41.1592 35.8218 36.7768 38.6773 31.79 38.6773C26.8032 38.6773 22.4208 35.6715 20.6074 31.1629C20.003 29.5098 18.0385 28.7583 16.5273 29.3595C14.865 29.9606 14.1094 31.9143 14.7139 33.4172C17.5851 40.3304 24.2342 44.839 31.79 44.839C37.3813 44.839 42.3681 42.4344 45.8438 38.2264C49.3195 42.2841 54.4574 44.839 60.0487 44.839C65.64 44.839 70.7779 42.4344 74.1025 38.2264C77.5781 42.2841 82.7161 44.839 88.3074 44.839C93.8986 44.839 99.0366 42.4344 102.361 38.2264C105.837 42.2841 110.975 44.839 116.566 44.839C124.122 44.839 130.771 40.3304 133.642 33.4172C134.247 31.7641 133.491 29.9606 131.829 29.3595C130.166 28.7583 128.353 29.5098 127.749 31.1629C125.935 35.8218 121.553 38.6773 116.566 38.6773C111.73 38.6773 107.348 35.6715 105.383 31.1629Z" fill="#CCCCCC"/>
<path d="M17.434 73.8444C23.0253 73.8444 28.0121 71.4398 31.4878 67.2317C34.9634 71.4398 40.1014 73.8444 45.6927 73.8444C51.284 73.8444 56.4219 71.4398 59.7464 67.2317C63.2221 71.2895 68.3601 73.8444 73.9513 73.8444C79.5426 73.8444 84.6806 71.4398 88.0051 67.2317C91.4808 71.2895 96.6187 73.8444 102.21 73.8444C109.766 73.8444 116.415 69.3358 119.286 62.4226C119.891 60.7694 119.135 58.966 117.473 58.3648C115.81 57.7637 113.997 58.5151 113.393 60.1683C111.579 64.8271 107.197 67.6826 102.21 67.6826C97.2232 67.6826 92.8408 64.8271 91.0275 60.1683C90.7252 59.4168 90.1208 58.6654 89.2141 58.3648C87.5518 57.7637 85.7384 58.5151 85.1339 60.1683C83.3205 64.8271 78.9382 67.6826 73.9513 67.6826C68.9645 67.6826 64.5822 64.8271 62.7688 60.1683C62.4665 59.4168 61.8621 58.6654 60.9554 58.3648C59.2931 57.7637 57.4797 58.5151 56.8752 60.1683C55.0619 64.8271 50.6795 67.6826 45.6927 67.6826C40.7058 67.6826 36.4746 64.8271 34.5101 60.3185C34.2079 59.4168 33.6034 58.6654 32.6967 58.3648C31.0344 57.7637 29.221 58.5151 28.6166 60.1683C26.8032 64.8271 22.4208 67.6826 17.434 67.6826C12.4472 67.6826 8.0648 64.6769 6.25141 60.1683C5.64694 58.5151 3.68244 57.7637 2.17128 58.3648C0.509003 58.966 -0.246577 60.9197 0.357887 62.4226C3.22909 69.3358 9.87819 73.8444 17.434 73.8444Z" fill="#CCCCCC"/>
<path d="M102.512 96.3874C105.988 100.445 111.126 103 116.717 103C124.273 103 130.922 98.4914 133.793 91.5782C134.398 89.925 133.642 88.1216 131.98 87.5204C130.318 86.9193 128.504 87.6707 127.9 89.3239C126.086 93.9828 121.704 96.8382 116.717 96.8382C111.73 96.8382 107.348 93.9828 105.535 89.3239C105.232 88.5725 104.628 87.821 103.721 87.5204C102.059 86.9193 100.246 87.6707 99.641 89.3239C97.8277 93.9828 93.4453 96.8382 88.4585 96.8382C83.4716 96.8382 79.0893 93.9828 77.2759 89.3239C76.9736 88.5725 76.3692 87.821 75.4625 87.5204C73.8002 86.9193 71.9868 87.6707 71.3824 89.3239C69.569 93.9828 65.1866 96.8382 60.1998 96.8382C55.213 96.8382 50.9817 93.9828 49.0172 89.4742C48.715 88.5725 48.1105 87.821 47.2038 87.5204C45.5415 86.9193 43.7281 87.6707 43.1237 89.3239C41.3103 93.9828 36.9279 96.8382 31.9411 96.8382C26.9543 96.8382 22.5719 93.8325 20.7585 89.3239C20.1541 87.6707 18.1896 86.9193 16.6784 87.5204C15.0161 88.1216 14.2605 90.0753 14.865 91.5782C17.7362 98.4914 24.3853 103 31.9411 103C37.5324 103 42.5192 100.595 45.9949 96.3874C49.4706 100.595 54.6085 103 60.1998 103C65.7911 103 70.929 100.595 74.2536 96.3874C77.7292 100.445 82.8672 103 88.4585 103C93.8986 103 99.0366 100.445 102.512 96.3874Z" fill="#CCCCCC"/>
</g>
<defs>
<filter id="filter0_i_120_121" x="0" y="0" width="134" height="107" filterUnits="userSpaceOnUse" color-interpolation-filters="sRGB">
<feFlood flood-opacity="0" result="BackgroundImageFix"/>
<feBlend mode="normal" in="SourceGraphic" in2="BackgroundImageFix" result="shape"/>
<feColorMatrix in="SourceAlpha" type="matrix" values="0 0 0 0 0 0 0 0 0 0 0 0 0 0 0 0 0 0 127 0" result="hardAlpha"/>
<feOffset dy="4"/>
<feGaussianBlur stdDeviation="2"/>
<feComposite in2="hardAlpha" operator="arithmetic" k2="-1" k3="1"/>
<feColorMatrix type="matrix" values="0 0 0 0 0 0 0 0 0 0 0 0 0 0 0 0 0 0 0.25 0"/>
<feBlend mode="normal" in2="shape" result="effect1_innerShadow_120_121"/>
</filter>
</defs>
</svg>
